<svg width="20" height="20" viewBox="0 0 20 20" fill="none" xmlns="http://www.w3.org/2000/svg">
<path d="M8.33334 4.16667H5.00001C4.53977 4.16667 4.16667 4.53976 4.16667 5V15C4.16667 15.4602 4.53977 15.8333 5.00001 15.8333H15C15.4602 15.8333 15.8333 15.4602 15.8333 15V11.6667" stroke="#333333" stroke-width="1.66667" stroke-linecap="round" stroke-linejoin="round"/>
<path d="M15.8333 7.5C15.8333 7.96024 16.2064 8.33333 16.6667 8.33333C17.1269 8.33333 17.5 7.96024 17.5 7.5L15.8333 7.5ZM16.6667 3.33333L17.5 3.33333C17.5 3.11232 17.4122 2.90036 17.2559 2.74408C17.0996 2.5878 16.8877 2.5 16.6667 2.5V3.33333ZM12.5 2.5C12.0398 2.5 11.6667 2.8731 11.6667 3.33333C11.6667 3.79357 12.0398 4.16667 12.5 4.16667V2.5ZM17.5 7.5L17.5 3.33333L15.8333 3.33333L15.8333 7.5L17.5 7.5ZM16.6667 2.5H12.5V4.16667H16.6667V2.5Z" fill="#333333"/>
<path d="M10.2441 8.57741C9.91864 8.90285 9.91864 9.43048 10.2441 9.75592C10.5695 10.0814 11.0971 10.0814 11.4226 9.75592L10.2441 8.57741ZM17.2559 3.92259C17.5814 3.59715 17.5814 3.06951 17.2559 2.74408C16.9305 2.41864 16.4028 2.41864 16.0774 2.74408L17.2559 3.92259ZM11.4226 9.75592L17.2559 3.92259L16.0774 2.74408L10.2441 8.57741L11.4226 9.75592Z" fill="#333333"/>
</svg>
