<svg width="16" height="16" viewBox="0 0 16 16" fill="none" xmlns="http://www.w3.org/2000/svg">
<path fill-rule="evenodd" clip-rule="evenodd" d="M8.07145 0C3.69092 0 0.142883 3.54804 0.142883 7.92857C0.142883 11.437 2.41244 14.4003 5.56404 15.4508C5.96047 15.5202 6.10913 15.2823 6.10913 15.0742C6.10913 14.8859 6.09922 14.2615 6.09922 13.5975C4.10717 13.9642 3.59181 13.1119 3.43324 12.6659C3.34404 12.4379 2.95753 11.7343 2.62056 11.546C2.34306 11.3973 1.94663 11.0306 2.61065 11.0207C3.23503 11.0108 3.68101 11.5955 3.82967 11.8334C4.54324 13.0326 5.68297 12.6956 6.13886 12.4875C6.20824 11.9721 6.41637 11.6253 6.64431 11.4271C4.8802 11.2288 3.03681 10.545 3.03681 7.51232C3.03681 6.65009 3.34404 5.93652 3.84949 5.38152C3.7702 5.1833 3.4927 4.37063 3.92878 3.28045C3.92878 3.28045 4.59279 3.07232 6.10913 4.09312C6.74342 3.91473 7.41735 3.82554 8.09128 3.82554C8.7652 3.82554 9.43913 3.91473 10.0734 4.09312C11.5898 3.06241 12.2538 3.28045 12.2538 3.28045C12.6898 4.37063 12.4123 5.1833 12.3331 5.38152C12.8385 5.93652 13.1457 6.64018 13.1457 7.51232C13.1457 10.5549 11.2924 11.2288 9.52833 11.4271C9.81574 11.6748 10.0635 12.1505 10.0635 12.8938C10.0635 13.9543 10.0536 14.8066 10.0536 15.0742C10.0536 15.2823 10.2023 15.5301 10.5987 15.4508C12.1726 14.9194 13.5403 13.9078 14.5092 12.5584C15.4782 11.2091 15.9996 9.5898 16 7.92857C16 3.54804 12.452 0 8.07145 0Z" fill="#878787"/>
</svg>
