<svg width="16" height="14" viewBox="0 0 16 14" fill="none" xmlns="http://www.w3.org/2000/svg">
<path d="M16 1.66066C15.4116 1.94128 14.7795 2.1309 14.115 2.2166C14.8007 1.77503 15.3136 1.08003 15.5582 0.261302C14.914 0.673137 14.209 0.963023 13.4738 1.11836C12.9794 0.550172 12.3245 0.173569 11.6109 0.0470186C10.8973 -0.0795316 10.1648 0.0510517 9.52717 0.418495C8.88955 0.785938 8.38247 1.36968 8.08467 2.0791C7.78686 2.78852 7.71499 3.58391 7.88021 4.3418C6.57496 4.27126 5.29807 3.9061 4.13242 3.27003C2.96677 2.63395 1.93841 1.74117 1.11407 0.649632C0.832203 1.17297 0.670131 1.77973 0.670131 2.42594C0.669817 3.00767 0.802912 3.58049 1.05761 4.09358C1.3123 4.60667 1.68073 5.04416 2.13019 5.36724C1.60893 5.34938 1.09918 5.19778 0.643354 4.92505V4.97056C0.643302 5.78646 0.905511 6.57726 1.38549 7.20877C1.86547 7.84027 2.53365 8.27359 3.27667 8.43519C2.79312 8.57605 2.28615 8.5968 1.79406 8.49587C2.0037 9.19791 2.41205 9.81181 2.96194 10.2516C3.51184 10.6915 4.17575 10.9352 4.86074 10.9487C3.69794 11.9312 2.26188 12.4642 0.783581 12.4618C0.521717 12.4619 0.260073 12.4455 0 12.4125C1.50056 13.451 3.24731 14.0021 5.03127 14C11.0702 14 14.3715 8.61646 14.3715 3.9474C14.3715 3.79571 14.368 3.6425 14.3617 3.49081C15.0038 2.99097 15.5581 2.37201 15.9986 1.66293L16 1.66066V1.66066Z" fill="#878787"/>
</svg>
